<?xml version="1.0" standalone="no"?>
<!DOCTYPE svg PUBLIC "-//W3C//DTD SVG 20010904//EN"
 "http://www.w3.org/TR/2001/REC-SVG-20010904/DTD/svg10.dtd">
<svg version="1.0" xmlns="http://www.w3.org/2000/svg"
 width="230.000000pt" height="330.000000pt" viewBox="0 0 230.000000 330.000000"
 preserveAspectRatio="xMidYMid meet">

<g transform="translate(0.000000,330.000000) scale(0.100000,-0.100000)"
fill="#000000" stroke="none">
<path d="M1786 3029 l-286 -261 2 -1016 c3 -1139 -3 -1041 77 -1121 60 -60
122 -85 221 -89 108 -5 179 20 244 82 89 87 81 -19 84 1124 l2 1012 -100 0
-100 0 0 -955 c0 -1029 1 -1002 -51 -1039 -13 -9 -43 -16 -67 -16 -35 0 -49 6
-73 29 l-29 29 0 980 0 979 285 258 c157 142 285 260 285 262 0 1 -47 3 -104
3 l-103 0 -287 -261z"/>
<path d="M194 2740 c-71 -28 -128 -81 -161 -148 l-28 -57 0 -885 0 -885 28
-57 c30 -61 74 -105 140 -140 36 -20 57 -23 147 -23 89 0 112 3 151 23 58 28
112 80 142 135 21 40 22 55 25 313 l3 271 55 54 54 53 0 -428 0 -428 -207
-226 c-113 -125 -222 -244 -242 -265 l-36 -38 111 3 110 3 237 260 237 260 0
546 0 545 35 34 c19 19 35 38 35 42 0 4 -16 8 -35 8 l-35 0 0 383 c0 361 1
384 20 414 38 63 142 63 180 0 19 -31 20 -59 20 -999 l0 -968 105 0 105 0 0
983 c0 1097 3 1047 -69 1128 -21 25 -63 58 -92 74 -50 28 -61 30 -159 30 -98
0 -109 -2 -159 -30 -29 -16 -71 -49 -92 -74 -68 -76 -69 -89 -69 -589 l0 -444
-160 -168 -160 -167 0 -237 0 -238 -29 -29 c-42 -41 -107 -41 -153 0 l-33 29
0 840 c0 826 0 840 20 862 49 55 132 57 175 3 19 -25 20 -38 20 -359 l0 -334
105 0 106 0 -3 368 c-3 358 -4 368 -25 409 -30 55 -84 106 -141 134 -68 32
-207 37 -278 9z"/>
</g>
</svg>
